<svg id="visual" viewBox="0 0 900 600" width="900" height="600" xmlns="http://www.w3.org/2000/svg" xmlns:xlink="http://www.w3.org/1999/xlink" version="1.1"><rect x="0" y="0" width="900" height="600" fill="#fef4f3"></rect><path d="M0 46L8.3 51.2C16.7 56.3 33.3 66.7 50 71.3C66.7 76 83.3 75 100 69.8C116.7 64.7 133.3 55.3 150 56.8C166.7 58.3 183.3 70.7 200 73.8C216.7 77 233.3 71 250 71C266.7 71 283.3 77 300 74C316.7 71 333.3 59 350 59C366.7 59 383.3 71 400 72.7C416.7 74.3 433.3 65.7 450 59.2C466.7 52.7 483.3 48.3 500 51.8C516.7 55.3 533.3 66.7 550 69.3C566.7 72 583.3 66 600 59.5C616.7 53 633.3 46 650 47.8C666.7 49.7 683.3 60.3 700 65.5C716.7 70.7 733.3 70.3 750 64.7C766.7 59 783.3 48 800 43.7C816.7 39.3 833.3 41.7 850 48.3C866.7 55 883.3 66 891.7 71.5L900 77L900 0L891.7 0C883.3 0 866.7 0 850 0C833.3 0 816.7 0 800 0C783.3 0 766.7 0 750 0C733.3 0 716.7 0 700 0C683.3 0 666.7 0 650 0C633.3 0 616.7 0 600 0C583.3 0 566.7 0 550 0C533.3 0 516.7 0 500 0C483.3 0 466.7 0 450 0C433.3 0 416.7 0 400 0C383.3 0 366.7 0 350 0C333.3 0 316.7 0 300 0C283.3 0 266.7 0 250 0C233.3 0 216.7 0 200 0C183.3 0 166.7 0 150 0C133.3 0 116.7 0 100 0C83.3 0 66.7 0 50 0C33.3 0 16.7 0 8.3 0L0 0Z" fill="#f6f6f6" stroke-linecap="round" stroke-linejoin="miter"></path></svg>