<svg id="visual" viewBox="0 0 900 600" width="900" height="600" xmlns="http://www.w3.org/2000/svg" xmlns:xlink="http://www.w3.org/1999/xlink" version="1.1"><rect x="0" y="0" width="900" height="600" fill="#0a0f24"></rect><path d="M0 29L16.7 36C33.3 43 66.7 57 100 63.5C133.3 70 166.7 69 200 66.7C233.3 64.3 266.7 60.7 300 55C333.3 49.3 366.7 41.7 400 37.8C433.3 34 466.7 34 500 40.8C533.3 47.7 566.7 61.3 600 67.8C633.3 74.3 666.7 73.7 700 67.8C733.3 62 766.7 51 800 46.2C833.3 41.3 866.7 42.7 883.3 43.3L900 44L900 0L883.3 0C866.7 0 833.3 0 800 0C766.7 0 733.3 0 700 0C666.7 0 633.3 0 600 0C566.7 0 533.3 0 500 0C466.7 0 433.3 0 400 0C366.7 0 333.3 0 300 0C266.7 0 233.3 0 200 0C166.7 0 133.3 0 100 0C66.7 0 33.3 0 16.7 0L0 0Z" fill="#f6f6f6" stroke-linecap="round" stroke-linejoin="miter"></path></svg>